<svg width="900" height="600" xmlns="http://www.w3.org/2000/svg"><path d="m0 398 21.5 8.2c21.5 8.1 64.5 24.5 107.3 32.6 42.9 8.2 85.5 8.2 128.4 5 42.8-3.1 85.8-9.5 128.6-10.3 42.9-.8 85.5 3.8 128.4-7.7 42.8-11.5 85.8-39.1 128.6-38.6 42.9.5 85.5 29.1 128.4 29.1 42.8 0 85.8-28.6 107.3-43L900 359v242H0Z" fill="#7e61a8"/><path d="m0 442 21.5 4.7c21.5 4.6 64.5 14 107.3 11.1 42.9-2.8 85.5-17.8 128.4-22.3 42.8-4.5 85.8 1.5 128.6 3.2 42.9 1.6 85.5-1 128.4-5.4C557 429 600 423 642.8 424c42.9 1 85.5 9 128.4 18.7 42.8 9.6 85.8 21 107.3 26.6L900 475v126H0Z" fill="#6b4b98"/><path d="m0 490 21.5-3.8C43 482.3 86 474.7 128.8 476c42.9 1.3 85.5 11.7 128.4 15.7 42.8 4 85.8 1.6 128.6-6.5 42.9-8.2 85.5-22.2 128.4-21.2 42.8 1 85.8 17 128.6 18.2 42.9 1.1 85.5-12.5 128.4-13.9C814 467 857 478 878.5 483.5L900 489v112H0Z" fill="#573589"/><path d="m0 514 21.5-2.8C43 508.3 86 502.7 128.8 499c42.9-3.7 85.5-5.3 128.4-1.8 42.8 3.5 85.8 12.1 128.6 11.6 42.9-.5 85.5-10.1 128.4-15.1 42.8-5 85.8-5.4 128.6-2.4 42.9 3 85.5 9.4 128.4 15.9 42.8 6.5 85.8 13.1 107.3 16.5L900 527v74H0Z" fill="#4b2e77"/><path d="m0 535 21.5 1.7c21.5 1.6 64.5 5 107.3 3.3 42.9-1.7 85.5-8.3 128.4-4.7C300 539 343 553 385.8 560.2c42.9 7.1 85.5 7.5 128.4 4.8 42.8-2.7 85.8-8.3 128.6-12.5 42.9-4.2 85.5-6.8 128.4-6 42.8.8 85.8 5.2 107.3 7.3L900 556v45H0Z" fill="#3f2865"/></svg>